HIERARCHY
ROOT HipCenter
{
    OFFSET 0.0 0.0 -0.0
    CHANNELS 6 Xposition Yposition Zposition Zrotation Xrotation Yrotation
    JOINT Spine
    {
        OFFSET 0.0 11.465803146362305 0.0
        CHANNELS 3 Zrotation Xrotation Yrotation
        JOINT ShoulderCenter
        {
            OFFSET 0.0 32.85440444946289 0.0
            CHANNELS 3 Zrotation Xrotation Yrotation
            JOINT LeftShoulder
            {
                OFFSET 19.58982276916504 0.0 0.0
                CHANNELS 3 Zrotation Xrotation Yrotation
                JOINT LeftElbow
                {
                    OFFSET 29.172470092773438 0.0 0.0
                    CHANNELS 3 Zrotation Xrotation Yrotation
                    JOINT LeftWrist
                    {
                        OFFSET 26.590774536132812 0.0 0.0
                        CHANNELS 3 Zrotation Xrotation Yrotation
                        JOINT LeftHand
                        {
                            OFFSET 3.827789783477783 0.0 0.0
                            CHANNELS 3 Zrotation Xrotation Yrotation
                            End Site
                            {
                                OFFSET 1.5311161279678345 0.0 0.0
                            }
                        }
                    }
                }
            }
            JOINT RightShoulder
            {
                OFFSET -19.58982276916504 0.0 0.0
                CHANNELS 3 Zrotation Xrotation Yrotation
                JOINT RightElbow
                {
                    OFFSET -29.172470092773438 0.0 0.0
                    CHANNELS 3 Zrotation Xrotation Yrotation
                    JOINT RightWrist
                    {
                        OFFSET -26.590774536132812 0.0 0.0
                        CHANNELS 3 Zrotation Xrotation Yrotation
                        JOINT RightHand
                        {
                            OFFSET -3.827789783477783 0.0 0.0
                            CHANNELS 3 Zrotation Xrotation Yrotation
                            End Site
                            {
                                OFFSET -1.5311161279678345 0.0 0.0
                            }
                        }
                    }
                }
            }
            End Site
            {
                OFFSET 0.0 13.14176082611084 0.0
            }
        }
    }
    JOINT LeftHip
    {
        OFFSET 13.23438835144043 0.0 0.0
        CHANNELS 3 Zrotation Xrotation Yrotation
        JOINT LeftKnee
        {
            OFFSET 0.0 -41.66917419433594 0.0
            CHANNELS 3 Zrotation Xrotation Yrotation
            JOINT LeftAnkle
            {
                OFFSET 0.0 -46.274375915527344 0.0
                CHANNELS 3 Zrotation Xrotation Yrotation
                JOINT LeftFoot
                {
                    OFFSET 0.0 -12.08497142791748 0.0
                    CHANNELS 3 Zrotation Xrotation Yrotation
                    End Site
                    {
                        OFFSET 0.0 0.0 4.833988666534424
                    }
                }
            }
        }
    }
    JOINT RightHip
    {
        OFFSET -13.23438835144043 0.0 0.0
        CHANNELS 3 Zrotation Xrotation Yrotation
        JOINT RightKnee
        {
            OFFSET 0.0 -41.66917419433594 0.0
            CHANNELS 3 Zrotation Xrotation Yrotation
            JOINT RightAnkle
            {
                OFFSET 0.0 -46.274375915527344 0.0
                CHANNELS 3 Zrotation Xrotation Yrotation
                JOINT RightFoot
                {
                    OFFSET 0.0 -12.08497142791748 0.0
                    CHANNELS 3 Zrotation Xrotation Yrotation
                    End Site
                    {
                        OFFSET 0.0 0.0 4.833988666534424
                    }
                }
            }
        }
    }
}
MOTION
Frames: 8
Frame Time: 0.03333333333333333
10.0 4.199999809265137 3.5 3.979383326806138 3.7021008016892717e-07 90.14343874854193 0.6919272177747199 -0.8868007880008587 -0.04311138305658308 -1.596222548893839e-07 -1.9877924964763582e-07 -4.864349396944021 94.69795077400556 -11.843835636138566 173.19547414782437 -3.1462795748963746e-07 5.5359556365236904e-06 33.13668940111431 179.99999611687667 -36.41512326785262 -152.57517560433746 -8.827812596100317e-32 -3.1805546814635164e-15 -3.1805546814635164e-15 -91.08223861399767 -5.1454388339407835 -175.0180018462768 -2.402703054622567e-06 1.9937809856876512e-06 -27.898104194179005 3.6381747094788423e-06 -25.471967534584277 -16.747768533631316 -1.590277340731758e-15 6.361109362927032e-15 8.827812596100317e-32 5.038506536624907 5.201245337903549 -18.25728988726354 -5.553472447731941 11.448088140890357 -14.090791285245707 84.7336888034515 -50.651141569069445 142.26593165887223 -7.951386703658792e-16 -2.2069531490250793e-32 3.1805546814635168e-15 -2.450245775644324 4.527029490702276 17.228132383593 4.658756030806561 12.267047691717474 16.017164494645588 -84.39661818187201 -50.03097274060338 -143.6461268849907 4.4139062980501586e-32 -3.1805546814635168e-15 1.5902773407317584e-15
10.0 4.199999809265137 3.5 3.9793830368481036 1.3579273930071868e-07 90.17011971122184 0.6915140099882643 -0.887123112474821 -0.03719674110087839 2.607121667223404e-07 -2.0534660222533089e-07 -4.8969483280032335 94.59725288604767 -11.16649141792425 173.2250467548079 -1.75396496686531e-07 -1.4062558537554662e-06 33.0224668844178 179.99999584883616 -36.812140177824226 -152.75315725489284 0.0 -3.1805546814635168e-15 0.0 -91.1210160044668 -4.697419793507927 -175.22891646408843 -2.359422573164698e-06 -6.204554898284916e-07 -27.50349644325735 2.4474944211059823e-06 -23.308266432846636 -16.79975747647062 -4.770832022195274e-15 1.3241718894150476e-31 -3.1805546814635164e-15 5.039664352835549 5.060091631456071 -18.07830220684115 -5.71154200365678 11.67598389395574 -14.299002483078937 84.96508672982276 -50.147757783738584 142.53045770228064 -1.5902773407317584e-15 0.0 0.0 -2.4422951108579314 4.526877660523973 17.178765870578218 4.65440164991433 12.301321603632323 15.926507241159715 -83.49928002251792 -50.07234176004836 -142.54244248890024 -2.2069531490250793e-32 -1.5902773407317584e-15 -1.5902773407317584e-15
10.100000381469727 4.199999809265137 3.4000000953674316 4.014177149709006 1.2187585295006266e-07 90.16825234446667 1.0379147527486623 -1.0260745477214284 -0.03681269185667952 -3.164330446081832e-08 -1.8579121980814254e-07 -4.908849215016343 94.21718522146182 -10.692747441050354 172.89972685319066 5.150638555749126e-07 4.8771808025191415e-06 33.13965106746763 179.9999971266524 -34.59333555616833 -151.82534673827942 0.0 0.0 0.0 -91.50881226777038 -4.276975784515042 -175.08870430065076 7.752401535131489e-07 4.971459674133239e-07 -27.592696537652362 -6.543135975112112e-06 -23.281162343011317 -16.66473151917253 -3.1805546814635168e-15 0.0 0.0 5.039873294036209 5.094913484691964 -18.36505054511073 -5.692484633222881 11.825499383455501 -14.782884218318786 85.22664492104133 -49.87183881735584 143.42039003099518 1.5902773407317582e-15 8.827812596100317e-32 6.361109362927033e-15 -2.448316056016448 4.835398432313487 17.384037970275745 4.573369628097547 11.876317411931295 15.363222373238335 -84.14626723480097 -50.51883969554447 -143.0172203736314 8.827812596100317e-32 -3.1805546814635168e-15 3.1805546814635168e-15
10.100000381469727 4.300000190734863 3.4000000953674316 3.483274933342408 1.1021375722973659e-07 90.22177651707007 1.2104240992578772 -1.9201034873564828 -0.05080502641179227 -5.183149975591743e-07 -2.203368984029988e-07 -4.93291212759883 93.86837542419296 -9.57318739437144 172.40010418919513 1.83750013242044e-06 4.057923925868943e-06 33.154991608559335 179.99999931576403 -32.89938001842559 -150.99984112592753 -6.3611093629270335e-15 -2.648343778830095e-31 4.770832022195275e-15 -91.72715156518058 -3.815176606236728 -174.95245039296418 -4.91947769521711e-06 1.20970086255888e-06 -27.298218248298383 -1.6153583207539803e-07 -20.453692212228667 -17.583779621633056 3.180554681463516e-15 6.361109362927032e-15 -3.180554681463516e-15 5.173454468829997 4.143438126895574 -17.813279495230237 -6.031704484651384 12.455968935043192 -15.478959780833772 85.67663483855303 -49.68958014447912 143.69329180119067 -7.95138670365879e-16 -3.1805546814635168e-15 6.3611093629270335e-15 -2.443688821897708 4.579778682423168 17.936959067307562 4.409328624923671 11.344091430636078 14.803534410089528 -83.48193512320904 -50.420504721515485 -142.70857135761173 6.3611093629270335e-15 -4.770832022195275e-15 2.648343778830095e-31
10.199999809265137 4.199999809265137 3.299999952316284 4.014176436282378 0.5013497933865146 90.19508532663883 1.2268292121037643 -1.544671055191152 -0.026467272232649146 2.461821244341216e-07 3.679867886423732e-08 -4.797825359205986 93.58988079531123 -10.44933715227884 172.2512740299313 -2.277650207182095e-06 3.1507853313997053e-06 32.95207786009277 -179.99999472726603 -37.208447086734026 -153.46801032001443 -6.3611093629270335e-15 -8.827812596100317e-32 1.5902773407317584e-15 -92.24672042378049 -3.6994832895030503 -174.8354762868013 -6.108012045877875e-06 -4.114914340568821e-06 -27.48333584123407 -1.4404034705669989e-06 -20.68265522127519 -17.41104015185235 -1.5902773407317584e-15 -4.4139062980501586e-32 3.1805546814635168e-15 4.403341541830157 5.234634628192456 -18.522070147595027 -5.663812843002324 11.68564246654783 -14.544671521046011 85.25763863246523 -49.481534657130716 143.51028077633862 -3.1805546814635168e-15 -3.1805546814635168e-15 3.1805546814635168e-15 -3.077897695982611 4.700335416890652 17.200605643854153 4.9098869777044865 12.208774493542311 15.543938857425358 -83.71870756061595 -49.926934448602545 -142.3835521194439 0.0 0.0 0.0
10.300000190734863 4.199999809265137 3.299999952316284 4.5139911817501055 0.5010236025196946 90.17142505379402 1.9265595297663027 -1.4085733822156392 -0.006978058481984332 -3.409350648048503e-07 1.5409629293766537e-07 -4.492654417959272 92.86772518378854 -10.705463169059104 172.14821493212764 3.001063539497804e-06 3.306451955070425e-06 32.23643350894906 -179.99999996794008 -32.973625354061916 -151.6944121512982 0.0 0.0 -1.5902773407317582e-15 -92.81285179078598 -2.5267130071372677 -174.91716988649623 4.7097261093957835e-06 4.605969893799469e-06 -27.361968038609838 -1.7656584366773636e-07 -21.18676609059874 -16.148451608229973 1.7655625192200634e-31 6.3611093629270335e-15 -3.1805546814635168e-15 4.546133690386182 5.732814971284411 -18.622645971615572 -5.964309385543144 11.711503691696192 -14.490561887714417 85.46818042820887 -49.44284364901268 143.56815849053973 -3.1805546814635168e-15 -3.1805546814635168e-15 3.1805546814635168e-15 -2.943632884100033 5.334452685802398 17.375321312974283 4.645054832277344 12.145388563399363 15.51890599929964 -83.70438435259553 -49.84994478065379 -142.50367944049432 0.0 0.0 0.0
10.40000057220459 4.199999809265137 3.299999952316284 4.513991229085028 1.0019695272425277 89.4012119042969 1.9657164676599579 -1.5542948571124018 0.008104843714796268 -3.283614784631513e-07 7.178088378998707e-07 -3.767414761309067 92.6332488887705 -10.989416403111216 171.98048687680532 1.006129359421574e-06 -4.608401582009675e-06 32.082255862329376 179.99999966102789 -34.90074951284857 -153.13493257110935 6.3611093629270335e-15 0.0 0.0 -93.28923714418558 -3.0016103873853965 -175.20378197718202 1.4622772612944212e-06 -2.2010390874313865e-06 -26.65474496958925 -5.701000886238437e-06 -19.469051209945324 -18.391878806329782 -1.5902773407317582e-15 -4.4139062980501586e-32 3.1805546814635164e-15 3.9676804242624883 5.78812355974635 -18.635791513793652 -6.208597958452796 11.881468741159127 -14.504655817013731 85.93265273235244 -49.09684658736556 143.78054348227369 -6.3611093629270335e-15 1.7655625192200634e-31 -3.1805546814635168e-15 -3.6524592985116797 5.287211698629214 17.694629951705835 4.550650739476603 12.180068470645029 15.923807626971872 -83.61939400646597 -50.43095607427695 -142.78462416863263 0.0 0.0 0.0
10.5 4.300000190734863 3.299999952316284 5.013113679071119 1.0012423649951911 89.73139855762678 2.8319185622112477 -0.9075956575393916 0.012218925502115927 -4.187937198251136e-07 9.723947603741646e-08 -3.8298854601690757 92.29215387089849 -11.783271970693692 172.17006928886937 -2.134813317680493e-06 9.336347065699735e-07 32.15946219748343 179.99999972783277 -33.95819433462774 -153.30754161444577 6.361109362927032e-15 -3.180554681463516e-15 -1.5902773407317578e-15 -93.90976277987696 -3.215193880144945 -175.5913191092325 3.7600532301918066e-07 -6.27396545666647e-07 -27.015694045602945 -5.260092550343927e-06 -26.772251578618786 -17.62009876712684 1.590277340731758e-15 0.0 0.0 3.864038007557762 5.985355218112643 -18.256196144963475 -6.171630454499921 12.742348796381464 -15.313654172027368 86.01577772392157 -49.01759787144777 143.37672948628813 1.5902773407317584e-15 0.0 0.0 -3.636684843802601 6.353534926657526 19.01737316592809 4.63520239308872 11.265373315948143 14.735501748047279 -83.25074388131661 -49.996187032840304 -142.7269478342595 6.3611093629270335e-15 0.0 0.0
